<svg xmlns="http://www.w3.org/2000/svg" xmlns:xlink="http://www.w3.org/1999/xlink" width="72" height="72" viewBox="0 0 72 72">
    <defs>
        <rect id="a" width="72" height="72" rx="2"/>
        <path id="b" d="M2 0h68a2 2 0 0 1 2 2v68a2 2 0 0 1-2 2H2a2 2 0 0 1-2-2V2a2 2 0 0 1 2-2zm1 1a2 2 0 0 0-2 2v66a2 2 0 0 0 2 2h66a2 2 0 0 0 2-2V3a2 2 0 0 0-2-2H3z"/>
        <path id="d" d="M46.436 23.108c0 12.763-10.388 23.109-23.203 23.109C10.419 46.217.031 35.87.031 23.108.031 10.346 10.419 0 23.233 0c12.815 0 23.203 10.346 23.203 23.108z"/>
    </defs>
    <g fill="none" fill-rule="evenodd">
        <mask id="c" fill="#fff">
            <use xlink:href="#b"/>
        </mask>
        <g fill="#D8D8D8" mask="url(#c)">
            <path fill="none" d="M0 0h72v72H0z"/>
        </g>
        <g>
            <path fill-rule="nonzero" d="M3 12h66v49H3z"/>
            <path stroke="#002E6E" stroke-width="1.2" d="M59.636 36.303c0 13.095-10.658 23.709-23.803 23.709-13.145 0-23.802-10.614-23.802-23.709 0-13.094 10.657-23.708 23.802-23.708s23.803 10.614 23.803 23.708z"/>
            <path fill="#00B9F5" d="M29.579 25.537H43.49v.029c-.819 1.26-1.282 1.933-1.388 2.019h-3.717c.511.596.858 1.322 1.04 2.178h3.964c.048.01.072.028.072.058-.887 1.326-1.34 1.99-1.36 1.99H39.53c-.058.683-.386 1.505-.984 2.466-.79.971-1.548 1.6-2.27 1.89-1.35.644-2.642.966-3.877.966v.028c0 .097.305.496.912 1.198l6.87 8.264v.389c0 .038-.025.057-.073.057h-3.022c-5.438-6.316-8.158-9.489-8.158-9.518v-1.918l.029-.072c.483.066 1.047.1 1.692.1 3.047 0 4.942-.985 5.685-2.956.115-.288.173-.587.173-.895h-8.273c-.038 0-.057-.018-.057-.057.916-1.327 1.383-1.99 1.403-1.99h6.566v-.03c-.377-.758-1.105-1.35-2.185-1.774-.77-.25-1.465-.374-2.082-.374h-3.674v-.072c.888-1.318 1.345-1.976 1.375-1.976"/>
            <path stroke="#00B9F5" stroke-dasharray="2.089799899470805,3.134999755918983" stroke-linecap="round" stroke-linejoin="round" stroke-width="1.2" d="M56.393 36.303c0 11.309-9.205 20.477-20.56 20.477-11.355 0-20.56-9.168-20.56-20.477 0-11.308 9.205-20.476 20.56-20.476 11.355 0 20.56 9.168 20.56 20.476z"/>
            <path stroke="#002E6E" stroke-linecap="round" stroke-linejoin="round" stroke-width="1.2" d="M4.2 59.805h63.6"/>
        </g>
    </g>
</svg>
