<svg xmlns="http://www.w3.org/2000/svg" width="243" height="23" viewBox="0 0 243 23">
    <g fill="#F1F4F9" fill-rule="nonzero" opacity=".3">
        <ellipse cx="3.586" cy="19.637" rx="3.586" ry="3.213"/>
        <ellipse cx="20.084" cy="19.637" rx="3.586" ry="3.213"/>
        <ellipse cx="37.298" cy="19.637" rx="3.586" ry="3.213"/>
        <ellipse cx="54.513" cy="19.637" rx="3.586" ry="3.213"/>
        <ellipse cx="72.444" cy="19.637" rx="3.586" ry="3.213"/>
        <ellipse cx="88.224" cy="19.637" rx="3.586" ry="3.213"/>
        <ellipse cx="104.721" cy="19.637" rx="3.586" ry="3.213"/>
        <ellipse cx="122.653" cy="19.637" rx="3.586" ry="3.213"/>
        <ellipse cx="139.15" cy="19.637" rx="3.586" ry="3.213"/>
        <ellipse cx="3.586" cy="3.213" rx="3.586" ry="3.213"/>
        <ellipse cx="20.084" cy="3.213" rx="3.586" ry="3.213"/>
        <ellipse cx="37.298" cy="3.213" rx="3.586" ry="3.213"/>
        <ellipse cx="54.513" cy="3.213" rx="3.586" ry="3.213"/>
        <ellipse cx="72.444" cy="3.213" rx="3.586" ry="3.213"/>
        <ellipse cx="88.224" cy="3.213" rx="3.586" ry="3.213"/>
        <ellipse cx="104.721" cy="3.213" rx="3.586" ry="3.213"/>
        <ellipse cx="122.653" cy="3.213" rx="3.586" ry="3.213"/>
        <ellipse cx="139.15" cy="3.213" rx="3.586" ry="3.213"/>
        <ellipse cx="154.213" cy="19.637" rx="3.586" ry="3.213"/>
        <ellipse cx="170.71" cy="19.637" rx="3.586" ry="3.213"/>
        <ellipse cx="187.925" cy="19.637" rx="3.586" ry="3.213"/>
        <ellipse cx="205.139" cy="19.637" rx="3.586" ry="3.213"/>
        <ellipse cx="223.071" cy="19.637" rx="3.586" ry="3.213"/>
        <ellipse cx="238.851" cy="19.637" rx="3.586" ry="3.213"/>
        <ellipse cx="154.213" cy="3.213" rx="3.586" ry="3.213"/>
        <ellipse cx="170.71" cy="3.213" rx="3.586" ry="3.213"/>
        <ellipse cx="187.925" cy="3.213" rx="3.586" ry="3.213"/>
        <ellipse cx="205.139" cy="3.213" rx="3.586" ry="3.213"/>
        <ellipse cx="223.071" cy="3.213" rx="3.586" ry="3.213"/>
        <ellipse cx="238.851" cy="3.213" rx="3.586" ry="3.213"/>
    </g>
</svg>
