<svg xmlns="http://www.w3.org/2000/svg" xmlns:xlink="http://www.w3.org/1999/xlink" width="110" height="82" viewBox="0 0 110 82">
    <defs>
        <path id="a" d="M0 .084h33.509v28H-.001z"/>
    </defs>
    <g fill="none" fill-rule="evenodd">
        <path fill="#FFF" d="M46.956 77h-29.96a6.02 6.02 0 0 1-6.02-6.02V7.02A6.02 6.02 0 0 1 16.996 1h29.96a6.02 6.02 0 0 1 6.02 6.02v63.96a6.02 6.02 0 0 1-6.02 6.02"/>
        <path stroke="#012B72" stroke-linecap="round" stroke-linejoin="round" stroke-width="2" d="M46.956 77h-29.96a6.02 6.02 0 0 1-6.02-6.02V7.02A6.02 6.02 0 0 1 16.996 1h29.96a6.02 6.02 0 0 1 6.02 6.02v63.96a6.02 6.02 0 0 1-6.02 6.02z"/>
        <path fill="#012B72" d="M34.906 69.613c0 1.657-1.312 3-2.93 3-1.619 0-2.93-1.343-2.93-3s1.311-3 2.93-3c1.618 0 2.93 1.343 2.93 3"/>
        <path stroke="#002E6E" stroke-linecap="round" stroke-linejoin="round" stroke-width="2" d="M1 77h62"/>
        <path fill="#FFF" d="M36.4 8h-8.212"/>
        <path stroke="#012B72" stroke-linecap="round" stroke-linejoin="round" stroke-width="2" d="M36.4 8h-8.212"/>
        <g transform="translate(36 22)">
            <mask id="b" fill="#fff">
                <use xlink:href="#a"/>
            </mask>
            <path fill="#FFF" d="M30.633 28.084H2.877A2.877 2.877 0 0 1 0 25.207V2.96A2.877 2.877 0 0 1 2.877.084h27.756A2.877 2.877 0 0 1 33.51 2.96v22.246a2.877 2.877 0 0 1-2.877 2.877" mask="url(#b)"/>
        </g>
        <path stroke="#00BDF2" stroke-linecap="round" stroke-linejoin="round" stroke-width="2" d="M63.878 47.115H41.632a2.877 2.877 0 0 1-2.877-2.877V27.992a2.877 2.877 0 0 1 2.877-2.877h22.246a2.877 2.877 0 0 1 2.877 2.877v16.246a2.877 2.877 0 0 1-2.877 2.877z"/>
        <path stroke="#00BDF2" stroke-linecap="round" stroke-linejoin="round" stroke-width="2" d="M66.467 28.084l-11.781 6.77a3.326 3.326 0 0 1-3.257.03l-12.386-6.8"/>
    </g>
</svg>
