<svg xmlns="http://www.w3.org/2000/svg" xmlns:xlink="http://www.w3.org/1999/xlink" width="187" height="187" viewBox="0 0 187 187">
    <defs>
        <filter id="a" width="172%" height="172%" x="-36%" y="-36%" filterUnits="objectBoundingBox">
            <feOffset dy="14" in="SourceAlpha" result="shadowOffsetOuter1"/>
            <feGaussianBlur in="shadowOffsetOuter1" result="shadowBlurOuter1" stdDeviation="7.5"/>
            <feColorMatrix in="shadowBlurOuter1" result="shadowMatrixOuter1" values="0 0 0 0 0 0 0 0 0 0 0 0 0 0 0 0 0 0 0.0705106431 0"/>
            <feMerge>
                <feMergeNode in="shadowMatrixOuter1"/>
                <feMergeNode in="SourceGraphic"/>
            </feMerge>
        </filter>
        <rect id="b" width="156.396" height="156.396" rx="15.415"/>
    </defs>
    <g fill="none" fill-rule="evenodd" filter="url(#a)" transform="translate(15 1)">
        <mask id="c" fill="#fff">
            <use xlink:href="#b"/>
        </mask>
        <use fill="#FFF" fill-rule="nonzero" xlink:href="#b"/>
        <path fill="#00B9F5" fill-rule="nonzero" d="M0 139.933h156.396v8.232H0z" mask="url(#c)"/>
        <path fill="#002E6E" fill-rule="nonzero" d="M0 148.165h156.396v8.231H0z" mask="url(#c)"/>
        <g>
            <path fill="#00B9F5" d="M127.19 52.265c.199.57.346 1.127.346 2.431v19.157c0 .562-.454 1.018-1.012 1.018h-4.574a1.015 1.015 0 0 1-1.013-1.018l-.017-17.81c.002-.88-.597-1.633-1.585-1.72h-.845c-.326.029-.607.13-.84.283-.477.313-.748.846-.746 1.437l.003 17.906a1.012 1.012 0 0 1-1.006.97h-4.575a1.016 1.016 0 0 1-1.013-1.02l-.017-17.833a1.696 1.696 0 0 0-.62-1.345 1.767 1.767 0 0 0-.965-.375H107.867c-.922.081-1.503.74-1.578 1.54-.006.059-.009.119-.009.18l.004 17.92a1.01 1.01 0 0 1-.999.88h-4.574a1.015 1.015 0 0 1-1.012-1.018V48.881c0-.563.454-1.019 1.012-1.019h4.574c.534 0 .964.415 1.004.941v.525a6.79 6.79 0 0 1 4.46-1.664h.061a6.8 6.8 0 0 1 4.93 2.113 6.803 6.803 0 0 1 4.932-2.113h.063c2.984 0 5.522 1.921 6.455 4.6zM96.214 47.929h-2.617V43.66a.927.927 0 0 0-.924-.934.896.896 0 0 0-.174.02c-2.902.8-2.32 4.838-7.616 5.182h-.516c-.076 0-.15.01-.22.026h-.005.003c-.451.102-.79.505-.79.99v4.596c0 .563.453 1.019 1.012 1.019h2.761l-.003 19.492c0 .557.448 1.007 1 1.007h4.524c.552 0 1-.45 1-1.007l.002-19.492h2.563c.558 0 1.01-.456 1.01-1.019v-4.596c0-.561-.452-1.016-1.01-1.016"/>
            <path fill="#012B72" d="M79.75 47.929h-4.574c-.558 0-1.011.455-1.011 1.016v9.507a1.073 1.073 0 0 1-1.07 1.06h-1.918a1.075 1.075 0 0 1-1.071-1.077l-.02-9.49c0-.561-.454-1.016-1.012-1.016H64.5c-.559 0-1.012.455-1.012 1.016v10.418c0 3.958 2.809 6.779 6.75 6.779 0 0 2.957 0 3.047.017a1.071 1.071 0 0 1 .015 2.127l-.076.014-6.693.024c-.558 0-1.011.455-1.011 1.017v4.597c0 .56.453 1.015 1.01 1.015h7.483c3.941 0 6.75-2.82 6.75-6.779V48.945c0-.561-.453-1.016-1.012-1.016M35.462 56.353V59.19c0 .594-.48 1.077-1.072 1.077l-2.904.003v-5.686h2.904c.592 0 1.072.482 1.072 1.077v.692zm.402-8.425H25.862a.995.995 0 0 0-.992.997v4.504c0 .009.002.016.002.016l-.002.074v20.385c0 .555.413 1.006.925 1.02h4.662c.56 0 1.012-.455 1.012-1.017l.017-6.988h4.378c3.664 0 6.217-2.552 6.217-6.249v-6.485c0-3.695-2.553-6.257-6.217-6.257zM54.447 67.145v.718c0 .059-.01.114-.018.17-.011.05-.025.1-.043.148v.002a1.07 1.07 0 0 1-1.018.691h-1.903c-.597 0-1.08-.453-1.08-1.011v-.867l-.002-.032.003-2.308V63.928c.003-.556.484-1.006 1.079-1.006h1.903c.596 0 1.079.452 1.079 1.01v3.213zm-.73-19.19H47.37c-.561 0-1.016.427-1.016.953v1.788l.003.036c0 .012-.003.024-.003.024v2.462c0 .559.481 1.012 1.077 1.012h6.046c.476.075.854.423.909.972v.593c-.055.52-.428.9-.885.944h-2.992c-3.982 0-6.82 2.659-6.82 6.39V68.475c0 3.711 2.439 6.35 6.393 6.35h8.298c1.488 0 2.695-1.131 2.695-2.527V54.855c0-4.23-2.17-6.9-7.357-6.9z"/>
            <text fill="#182233" font-family="OpenSans, Open Sans" font-size="18" transform="translate(24.516 42.27)">
                <tspan x="0" y="60">for Business</tspan>
            </text>
        </g>
    </g>
</svg>
