<svg xmlns="http://www.w3.org/2000/svg" xmlns:xlink="http://www.w3.org/1999/xlink" width="72" height="72" viewBox="0 0 72 72">
    <defs>
        <rect id="a" width="72" height="72" rx="2"/>
        <path id="b" d="M2 0h68a2 2 0 0 1 2 2v68a2 2 0 0 1-2 2H2a2 2 0 0 1-2-2V2a2 2 0 0 1 2-2zm1 1a2 2 0 0 0-2 2v66a2 2 0 0 0 2 2h66a2 2 0 0 0 2-2V3a2 2 0 0 0-2-2H3z"/>
    </defs>
    <g fill="none" fill-rule="evenodd">
        <mask id="c" fill="#fff">
            <use xlink:href="#b"/>
        </mask>
        <g fill="#D8D8D8" mask="url(#c)">
            <path fill="none" d="M0 0h72v72H0z"/>
        </g>
        <g>
            <g stroke="#002E6E" stroke-linecap="round" stroke-linejoin="round" stroke-width="1.56">
                <path d="M20.71 57.421h31.678V12.413H20.71zM12.18 57.42h48.737"/>
            </g>
            <path fill="#00BDF2" d="M41.118 42.022v-1.185h2.742V38.47h1.218v3.553zM42.628 44.385l-1.774.006h-.65v1.182h2.334l2.54.002v-1.19h-2.45zM37.717 45.575h1.269v-2.37h-1.269zM37.711 39.653h2.493v-1.18h-2.493zM30.762 33.434h1.827v-1.776h-1.827z"/>
            <path fill="#00BDF2" d="M28.02 36.1h7.31v-7.107h-7.31v7.106zm1.218-1.185h4.874v-4.738h-4.874v4.738zM40.509 33.434h1.827v-1.776H40.51z"/>
            <path fill="#00BDF2" d="M37.767 36.1h7.31v-7.107h-7.31v7.106zm1.219-1.185h4.874v-4.738h-4.874v4.738zM31.066 42.91h1.828v-1.777h-1.828z"/>
            <path fill="#00BDF2" d="M28.325 45.575h7.31v-7.107h-7.31v7.107zm1.218-1.185h4.874v-4.737h-4.874v4.737zM37.767 42.021h1.219v-1.184h-1.219z"/>
            <path fill="#00BCF1" d="M45.625 19.737a1.215 1.215 0 0 0-1.149-.792h-.01c-.346 0-.657.14-.879.364a1.23 1.23 0 0 0-.877-.364h-.011c-.304 0-.581.108-.794.287v-.09a.177.177 0 0 0-.179-.163h-.814c-.1 0-.18.079-.18.176v4.3c0 .097.08.176.18.176h.814c.091 0 .166-.067.178-.152v-3.087-.031a.293.293 0 0 1 .282-.265H42.336c.069.006.127.03.172.064.07.056.11.14.11.232l.003 3.072c0 .097.081.175.18.175h.815a.178.178 0 0 0 .18-.167l-.001-3.084c-.001-.102.047-.193.132-.247a.328.328 0 0 1 .15-.049H44.227a.292.292 0 0 1 .282.296l.004 3.068c0 .096.08.175.18.175h.814c.1 0 .18-.079.18-.175v-3.3c0-.224-.026-.32-.062-.419M40.111 18.99h-.466v-.734a.163.163 0 0 0-.164-.162c-.011 0-.02.002-.031.004-.517.138-.413.833-1.356.892h-.092a.167.167 0 0 0-.039.005.176.176 0 0 0-.14.17v.793c0 .096.08.175.18.175h.491v3.357c0 .096.08.174.177.174h.806a.176.176 0 0 0 .178-.174v-3.357h.456c.1 0 .18-.079.18-.175v-.792a.178.178 0 0 0-.18-.176"/>
            <path fill="#213368" d="M37.18 18.99h-.814c-.099 0-.18.08-.18.176v1.637a.188.188 0 0 1-.19.183h-.342a.188.188 0 0 1-.19-.186l-.004-1.634a.178.178 0 0 0-.18-.176h-.814c-.1 0-.18.08-.18.176v1.794c0 .682.5 1.167 1.201 1.167 0 0 .527 0 .542.003.096.011.17.089.17.184a.187.187 0 0 1-.167.183l-.014.002-1.19.004c-.1 0-.18.079-.18.176v.79c0 .098.08.176.18.176h1.331c.702 0 1.202-.485 1.202-1.167v-3.312a.178.178 0 0 0-.18-.176M29.296 20.442v.489a.188.188 0 0 1-.19.184l-.517.002v-.98h.516c.106 0 .191.083.191.185v.12zm.071-1.451h-1.78a.174.174 0 0 0-.176.171v4.302c0 .096.073.174.165.176h.83c.099 0 .18-.078.18-.175l.003-1.204h.778c.653 0 1.108-.44 1.108-1.076v-1.117c0-.636-.455-1.077-1.108-1.077zM32.676 22.3v.124c0 .01-.002.02-.003.029a.19.19 0 0 1-.189.145h-.339c-.106 0-.192-.077-.192-.174v-.678c0-.095.086-.173.192-.173h.34c.105 0 .191.078.191.174v.553zm-.13-3.305h-1.13c-.1 0-.18.074-.18.164v.743c0 .096.085.174.191.174h1.077a.184.184 0 0 1 .161.167v.102a.177.177 0 0 1-.157.163h-.533c-.709 0-1.214.458-1.214 1.1v.921c0 .64.434 1.094 1.138 1.094h1.477c.265 0 .48-.195.48-.435v-3.004c0-.729-.386-1.189-1.31-1.189z"/>
        </g>
    </g>
</svg>
