<svg xmlns="http://www.w3.org/2000/svg" width="110" height="82" viewBox="0 0 110 82">
    <g fill="none" fill-rule="evenodd">
        <g stroke="#002E6E" stroke-linecap="round" stroke-linejoin="round" stroke-width="2">
            <path d="M15 80h52V4H15zM1 79.996h80"/>
        </g>
        <path fill="#00BDF2" d="M48.5 53.996v-2H53v-4h2v6zM50.978 57.988l-2.912.009H47v1.997h3.832l4.168.003v-2.01h-4.02z"/>
        <path d="M0 81h82V3H0z"/>
        <path fill="#00BDF2" d="M42.918 59.996H45v-4h-2.082zM42.908 49.997H47v-1.993h-4.092zM31.5 39.496h3v-3h-3z"/>
        <path fill="#00BDF2" d="M27 43.996h12v-12H27v12zm2-2h8v-8h-8v8zM47.5 39.496h3v-3h-3z"/>
        <path fill="#00BDF2" d="M43 43.996h12v-12H43v12zm2-2h8v-8h-8v8zM32 55.496h3v-3h-3z"/>
        <path fill="#00BDF2" d="M27.5 59.996h12v-12h-12v12zm2-2h8v-8h-8v8zM43 53.996h2v-2h-2z"/>
        <path fill="#00BCF1" d="M55.898 16.367a1.998 1.998 0 0 0-1.886-1.338h-.018a1.99 1.99 0 0 0-1.44.615 1.992 1.992 0 0 0-1.442-.615h-.018c-.498 0-.953.183-1.303.484v-.152a.295.295 0 0 0-.293-.274h-1.337a.295.295 0 0 0-.295.296v7.261c0 .164.132.297.295.297h1.337a.296.296 0 0 0 .292-.256v-5.213l.001-.052a.488.488 0 0 1 .461-.448h.247a.52.52 0 0 1 .282.11.493.493 0 0 1 .18.39l.006 5.187c0 .164.133.296.295.296H52.6a.296.296 0 0 0 .294-.28v-5.209a.486.486 0 0 1 .462-.5h.247a.488.488 0 0 1 .463.5l.006 5.18c0 .163.132.296.295.296h1.337a.297.297 0 0 0 .296-.296v-5.57c0-.38-.043-.543-.102-.709M46.848 15.106h-.765v-1.24h-.001v-.001a.27.27 0 0 0-.27-.272c-.017 0-.033.003-.05.006-.848.233-.678 1.407-2.226 1.507H43.386a.267.267 0 0 0-.064.008h-.002a.296.296 0 0 0-.23.288v1.337c0 .163.133.296.296.296h.807l-.001 5.669c0 .162.13.293.292.293h1.322a.293.293 0 0 0 .292-.293v-5.67h.75a.296.296 0 0 0 .295-.295v-1.337a.296.296 0 0 0-.295-.296"/>
        <path fill="#213368" d="M42.037 15.106H40.7a.297.297 0 0 0-.296.296v2.765a.313.313 0 0 1-.312.308h-.56a.313.313 0 0 1-.314-.313l-.005-2.76a.297.297 0 0 0-.296-.296H37.58a.297.297 0 0 0-.296.296v3.03c0 1.15.821 1.97 1.973 1.97 0 0 .864 0 .89.006a.312.312 0 0 1 .004.619c-.007 0-.013.003-.022.004l-1.955.007a.296.296 0 0 0-.296.296v1.336c0 .164.133.296.296.296h2.186c1.152 0 1.972-.82 1.972-1.971v-5.593a.296.296 0 0 0-.295-.296M29.095 17.556v.825c0 .173-.14.313-.313.313l-.848.002v-1.655h.848c.173 0 .313.141.313.314v.201zm.117-2.45H26.29a.29.29 0 0 0-.29.29v1.31a.02.02 0 0 0 0 .005v5.949c0 .162.12.293.27.297h1.363a.296.296 0 0 0 .296-.296l.005-2.032h1.278c1.07 0 1.818-.742 1.818-1.817v-1.886c0-1.075-.747-1.82-1.818-1.82zM34.643 20.695v.209c0 .017-.003.033-.005.049a.313.313 0 0 1-.31.245h-.556c-.175 0-.316-.131-.316-.294V19.759c0-.161.142-.292.316-.292h.556c.173 0 .315.132.315.294v.934zm-.213-5.581h-1.854c-.164 0-.298.124-.298.277v1.254c0 .162.14.294.315.294h1.767c.138.022.25.123.265.283v.172a.295.295 0 0 1-.258.275h-.874c-1.164 0-1.994.773-1.994 1.858v1.555c0 1.079.713 1.847 1.869 1.847h2.424c.435 0 .788-.33.788-.735V17.12c0-1.23-.634-2.007-2.15-2.007z"/>
    </g>
</svg>
