<svg xmlns="http://www.w3.org/2000/svg" xmlns:xlink="http://www.w3.org/1999/xlink" width="26" height="26" viewBox="0 0 26 26">
    <defs>
        <path id="a" d="M12.625 3C7.312 3 3 7.312 3 12.625s4.312 9.625 9.625 9.625 9.625-4.312 9.625-9.625S17.938 3 12.625 3zm.963 16.363h-1.925v-1.925h1.925v1.925zm1.992-7.46l-.866.886c-.693.702-1.127 1.28-1.127 2.723h-1.925v-.48c0-1.06.434-2.022 1.127-2.725l1.193-1.212c.356-.347.568-.828.568-1.357a1.93 1.93 0 0 0-1.925-1.925A1.93 1.93 0 0 0 10.7 9.738H8.775a3.849 3.849 0 0 1 3.85-3.85 3.849 3.849 0 0 1 3.85 3.85c0 .847-.347 1.617-.895 2.165z"/>
    </defs>
    <g fill="none" fill-rule="evenodd">
        <path d="M.75.75h24.5v24.5H.75z"/>
        <use fill="#FFF" fill-rule="nonzero" xlink:href="#a"/>
    </g>
</svg>
