<svg xmlns="http://www.w3.org/2000/svg" xmlns:xlink="http://www.w3.org/1999/xlink" width="188" height="161" viewBox="0 0 188 161">
    <defs>
        <filter id="a" width="177.1%" height="184.1%" x="-38.6%" y="-42.1%" filterUnits="objectBoundingBox">
            <feMorphology in="SourceAlpha" operator="dilate" radius="5" result="shadowSpreadOuter1"/>
            <feOffset dy="20" in="shadowSpreadOuter1" result="shadowOffsetOuter1"/>
            <feGaussianBlur in="shadowOffsetOuter1" result="shadowBlurOuter1" stdDeviation="20"/>
            <feColorMatrix in="shadowBlurOuter1" result="shadowMatrixOuter1" values="0 0 0 0 0.880075468 0 0 0 0 0.880075468 0 0 0 0 0.880075468 0 0 0 0.2 0"/>
            <feMerge>
                <feMergeNode in="shadowMatrixOuter1"/>
                <feMergeNode in="SourceGraphic"/>
            </feMerge>
        </filter>
        <path id="b" d="M.674 0h33.979v22H.674z"/>
        <path id="d" d="M0 83h109.653V1H0z"/>
    </defs>
    <g fill="none" fill-rule="evenodd" filter="url(#a)" transform="translate(0 -21)">
        <path fill="#00BDF2" d="M97.72 65.934v-.023l-11.23.086c-.023 0-.39.537-1.096 1.61v.058l2.965-.023c.499-.003 1.059.094 1.683.292.875.335 1.466.81 1.775 1.424v.023l-5.3.04c-.016 0-.39.54-1.12 1.622 0 .032.015.047.047.047l6.677-.052c.002.25-.043.492-.134.726-.587 1.602-2.111 2.413-4.57 2.432a9.892 9.892 0 0 1-1.366-.072l-.023.059.01 1.555c.002.023 2.216 2.577 6.646 7.663l2.439-.02c.039 0 .059-.015.058-.046l-.002-.316-5.597-6.654c-.495-.565-.742-.887-.743-.965v-.023c.996-.008 2.037-.277 3.122-.807.582-.24 1.19-.754 1.822-1.546.476-.782.736-1.451.778-2.005l2.078-.015c.016-.001.377-.541 1.085-1.622 0-.023-.02-.04-.06-.046l-3.197.024c-.153-.692-.438-1.278-.854-1.758l3-.023c.085-.071.455-.62 1.108-1.645"/>
        <path stroke="#012B72" stroke-linecap="round" stroke-linejoin="round" stroke-width="2" d="M128.282 104h-74.77a3.616 3.616 0 0 1-3.615-3.616V45.616A3.616 3.616 0 0 1 53.512 42h74.77a3.616 3.616 0 0 1 3.615 3.616v54.768a3.616 3.616 0 0 1-3.615 3.616zM79.22 119.085L80.934 104h20.577l1.71 15M110.897 119.856l-19.893.073-19.106.071"/>
        <path fill="#FFF" d="M62.561 123H44.176a3.439 3.439 0 0 1-3.438-3.439v-36.98a3.439 3.439 0 0 1 3.438-3.439h18.385A3.44 3.44 0 0 1 66 82.581v36.98A3.44 3.44 0 0 1 62.561 123"/>
        <path fill="#FFF" d="M59.561 120H44.438A3.44 3.44 0 0 1 41 116.561V85.439A3.44 3.44 0 0 1 44.44 82H59.56A3.44 3.44 0 0 1 63 85.439v31.122A3.44 3.44 0 0 1 59.561 120"/>
        <path stroke="#012B72" stroke-linecap="round" stroke-linejoin="round" stroke-width="2" d="M59.561 120H44.438A3.44 3.44 0 0 1 41 116.561V85.439A3.44 3.44 0 0 1 44.44 82H59.56A3.44 3.44 0 0 1 63 85.439v31.122A3.44 3.44 0 0 1 59.561 120z"/>
        <path fill="#012B72" d="M53 116a1 1 0 1 1-2 0 1 1 0 0 1 2 0"/>
        <g transform="translate(115 73)">
            <mask id="c" fill="#fff">
                <use xlink:href="#b"/>
            </mask>
            <path fill="#FFF" d="M32.655 22H2.673a1.999 1.999 0 0 1-1.999-1.999V1.999C.674.895 1.57 0 2.674 0h29.981c1.104 0 1.998.895 1.998 1.999v18.002A1.998 1.998 0 0 1 32.655 22" mask="url(#c)"/>
        </g>
        <path stroke="#00BDF2" stroke-linecap="round" stroke-linejoin="round" stroke-width="2" d="M143.001 92h-22.002A1.999 1.999 0 0 1 119 90.001V77.999c0-1.104.895-1.999 1.999-1.999h22.002c1.104 0 1.999.895 1.999 1.999v12.002A1.999 1.999 0 0 1 143.001 92z"/>
        <path fill="#00BDF2" d="M118.898 83.487h26.78v-3.571h-26.78z"/>
    </g>
</svg>
